<svg version="1" xmlns="http://www.w3.org/2000/svg" width="960" height="960" viewBox="0 0 720.000000 720.000000"><path d="M192.8 96.5c-.1.1-4.5.6-9.7 1-5.1.3-9.8.8-10.5 1.1-.6.2-3.3.6-6.1.8-4.2.4-11.1 1.6-23 4-10.7 2.2-36 9.6-39.7 11.6-1 .6-2.3 1-2.9 1-2.2 0-28.4 12.3-40.4 19-8.1 4.5-26.3 16.7-35.5 23.8l-7.5 5.8v78.7c0 43.3.2 78.7.6 78.7.3 0 6.4-6.2 13.5-13.7 16.4-17.5 29.5-30.6 35.9-36 2.8-2.4 5.7-4.9 6.5-5.6 8.6-7.8 31.2-21.5 47.4-28.7 6.1-2.7 23.6-9 23.6-8.5 0 .2 1.5-.2 3.3-1 1.7-.7 4.9-1.6 7.1-1.9 2.1-.4 4.1-.8 4.5-1 .4-.3 2.9-.7 5.6-1 2.8-.4 7.5-1 10.5-1.5 5.8-.9 35.7-.7 40 .3 2.4.5 5.3 1.2 9.5 2.1 3.7.7 14.4 5.3 17.7 7.6 11.7 7.9 17.6 21 18.2 40.3.3 9.9.1 10.9-2.4 11.5-1.8.4-19.9 5.6-36.5 10.4-31.7 9.3-44.1 12.9-45.5 13.2-.8.2-5.1 1.5-9.5 2.9-4.4 1.5-9.8 3.2-12 3.8-5 1.4-4.7 1.4-6.5 2.1-.8.3-3.7 1.3-6.5 2.2-2.7 1-5.9 2.1-7 2.5-5.2 2-17.1 6.5-17.5 6.6-3.8.8-38.3 17.4-38.8 18.6-.2.4-.9.8-1.6.8-.7 0-5.7 3-11.2 6.6-29.8 19.9-46.5 40.2-57.3 69.8-2.2 6-5.7 19.9-6.7 26.5-.3 2-.8 4.7-1.1 6.1-.3 1.4-.7 10.4-.8 20-.3 16.5 0 20.9 2.5 32 .6 2.5 1.2 5.4 1.4 6.5 2.2 11 14 33.6 23.5 45 5.7 6.7 21.5 21.8 26.2 25 .9.5 4.4 2.9 8 5.3 16.1 10.7 34.5 17.5 57.3 21 8.9 1.3 43.3.6 52.2-1.2 1.2-.2 3.7-.7 5.5-1 11.1-1.9 22.7-4.8 34.4-8.8 9.6-3.3 27.4-10.7 34-14.1 2.2-1.2 4.2-2.1 4.5-2.2.3 0 2.1-1 4.1-2.3 2-1.2 4.1-2.2 4.8-2.2.6 0 1.1-.5 1.1-1 0-.6.4-1 1-1 .5 0 3.2-1.4 6-3 2.8-1.7 5.3-3 5.5-3 .3 0 1.1 1.5 1.8 3.2 2 4.6 10.4 14.9 16.2 19.7 4.1 3.4 17.8 11.5 18.7 11.1.2-.1 1.6.3 3.1.9 1.5.6 7.4 2.1 13 3.2 14.4 3.1 44.6 3.3 59.8.4 17.2-3.3 34.8-8.4 46.4-13.4 1.1-.4 3.1-1.3 4.5-1.9 5.3-2.2 33.8-16.5 38.5-19.4 2.8-1.7 7.3-4.3 10-5.9l5-2.8.3-57.1c.2-54.2.1-57-1.5-56.1-1.6.9-6.4 4.8-10.3 8.4-4.2 3.9-20.1 16.7-24 19.3-10.8 7.3-25.2 13.6-32.1 14-3.5.2-3.9-.1-4.8-3-.6-1.7-.9-8.6-.8-15.4.1-6.7-.1-12.2-.5-12.2s-.5-.6-.2-1.4c.8-2.1 1-10.6.2-10.6-.4 0-.5-.6-.2-1.4.8-2.1 1-10.6.2-10.6-.4 0-.5-.6-.2-1.4.7-1.9 1-10.6.3-10.6-.3 0-.3-2 .1-4.4.3-2.4.3-5.3-.1-6.4-.4-1.2-.4-3.4 0-5 .5-1.6.5-3.5.1-4.2-.5-.7-.5-2.3 0-3.4.4-1.2.4-3 0-4.1-.4-1.1-.4-3.2 0-4.6.4-1.5.4-3.2 0-3.9-.5-.7-.5-2.3 0-3.4.4-1.2.4-3 0-4.1-.4-1.1-.4-3.2 0-4.6.4-1.5.4-3.2 0-3.9-.5-.7-.5-2.3 0-3.4.4-1.2.4-3 0-4.1-.4-1.1-.4-3.2 0-4.6.4-1.5.4-3.2 0-3.9-.5-.7-.6-1.9-.3-2.7.8-2.1.9-21.3.1-21.3-.4 0-.5-.6-.2-1.4.8-2.1 1-10.6.2-10.6-.4 0-.5-.6-.2-1.4.8-2.1 1-10.6.2-10.6-.4 0-.5-.6-.2-1.4.7-1.9 1-10.6.3-10.6-.3 0-.3-2 .1-4.4.3-2.4.3-5.3-.1-6.4-.4-1.2-.4-3.4 0-5 .5-1.6.5-3.5.1-4.2-.5-.7-.5-2.3 0-3.4.4-1.2.4-3 0-4.1-.4-1.1-.4-3.2 0-4.6.4-1.5.4-3.2 0-3.9-.5-.7-.4-2.3 0-3.6.5-1.2.7-2.4.5-2.5-.2-.2-.6-5.8-.9-12.4-.3-6.6-.8-12.9-1-14-.2-1.1-.7-4-1.1-6.5-.4-2.5-.9-5.4-1.2-6.5-.3-1.1-.8-3.6-1.2-5.5-.5-1.9-2.2-7.6-3.9-12.6-6.9-20.4-17.8-37.8-33.4-53.3-14.5-14.4-29.4-24.1-52.8-34.4-10.4-4.5-34.7-11.3-47.5-13.1-2.3-.4-5-.8-6-1-2.1-.4-12.2-1.6-19-2.3-4.9-.5-55.2-1.3-55.7-.8zm36.8 32c8.8.3 17.3.8 18.9 1 1.7.3 5 .7 7.5 1 5.1.6 10.5 1.3 14 2 27.4 5.2 47.2 12.8 65 24.8 9.1 6.2 24.1 21 29.5 29.2 8.1 12.3 15.5 30.8 17.1 43 .3 2.7.8 5.4 1.1 5.8.4.7 1.6 28.2 1.4 32.4 0 .7-.1 3.3-.1 5.8v101.7c0 .7 0 3.1-.2 5.4-.1 2.2.1 4.4.4 5 .3.5.2 1.8-.2 2.9-.4 1.1-.4 3.2.1 4.7.4 1.6.5 2.8.1 2.8-.8 0-.6 8.5.2 10.6.3.8.2 1.4-.2 1.4-.8 0-.6 8.5.2 10.6.3.8.2 1.4-.2 1.4-.8 0-.6 8.5.2 10.6.3.8.2 1.4-.2 1.4-.8 0-.6 8.5.2 10.6.3.8.2 1.4-.2 1.4-.8 0-.6 8.5.2 10.6.3.8.2 1.4-.2 1.4-.8 0-.6 8.5.2 10.6.3.8.2 1.4-.2 1.4s-.6 1.7-.5 3.7c.3 5.9.3 8.7.2 10.3-.3 3.1 1.1 15.1 2.2 19.2 2.4 9.3 9.8 19.2 16.5 22.4 8.6 4.1 24.5 5.3 31.9 2.4 1.7-.6 3-1.1 3-1 0 .3 9.3-3.4 19.3-7.7.9-.4 1.2 3 1.2 15.4v15.9l-12.7 6.6c-7.1 3.6-15.3 7.6-18.3 8.9-3 1.3-5.8 2.8-6.2 3.3-.4.6-.8.8-.8.4s-2.4.2-5.3 1.4c-9.8 3.9-28 8.8-39.7 10.5-5.4.8-33.9.8-39-.1-16.5-2.6-26.9-8.4-32.6-18.2-2.1-3.6-7.4-16-7.2-16.7.1-.3-.4-2.2-3.8-14-2.5-8.9-2.9-9.6-4.4-8.2-.9.8-2.1 1.5-2.7 1.5-.6 0-1.3.4-1.5.8-.3.9-24.9 17.7-32.3 22.1-16.5 10-45.3 23.1-56.3 25.6-.9.2-5.1 1.3-9.3 2.4-7.2 1.9-14.6 3.3-23.4 4.7-2.2.3-11 .7-19.5.9-17.2.3-27.6-1-39.9-5.2-8.2-2.7-24.6-10.8-27.1-13.3-.3-.3-2.7-2.3-5.5-4.5-5.6-4.4-18.8-17.5-17.7-17.5.4 0 .2-.4-.3-.8-1.7-1.2-6.5-8-6.5-9.1 0-.6-.4-1.1-.9-1.1-.6 0-6-10.5-6.6-13-.1-.3-.5-1.3-.8-2.3-.4-.9-1-2.5-1.3-3.5-2.9-7.8-4.1-18.6-3.9-33.2.5-27.2 6.1-46.7 18.8-65.5 19.5-28.8 68.5-54.1 145.2-75.1 1.2-.3 17.5-5.2 30-8.9 8.5-2.6 14.7-4.3 27.5-7.8 3-.9 7.5-2.2 10-3 3.7-1.3 8.5-2.7 14.5-4.3 7.1-1.9 13.2-3.9 14.1-4.5.9-.8 1.1-44.1.1-47.9-.2-.8-.8-3.8-1.2-6.5-1.2-6.5-.9-5.5-5.2-16.2-7.8-19.3-23.4-33-46.5-40.9-4-1.3-7.4-2.4-7.6-2.3-.1 0-1.5-.2-3-.5-6.2-1.4-8-1.7-13.7-2.4-7.9-.9-35.3-.9-43.5.1-9.5 1.2-13.3 1.7-14.9 2.3-.8.2-3 .7-5 1-8.1 1.4-22.4 5.6-35.1 10.6-9.9 3.8-26.7 12.1-36 17.7-8.8 5.3-24.5 16.4-27.9 19.8-1.3 1.3-2.7 2.1-3 1.7-.3-.3-.6-14.9-.6-32.4v-31.9l12.7-8.4c13.9-9.3 35.8-20.5 50.9-26.1 9.5-3.5 28.5-9.4 32.4-10 1.1-.2 5.8-1.1 10.5-2 4.7-.9 10.3-1.9 12.5-2.2 2.2-.2 4.7-.6 5.5-.9 2.7-.7 19.4-1.9 28.7-1.9 5.1-.1 9.3-.5 9.3-.9 0-.5.4-.6.9-.3s8 .8 16.7 1.1z"/><path d="M285 339.7c-8.6 3.2-16.8 6.2-32.5 11.8-7.1 2.5-13.9 5-15 5.5-1.1.5-8.3 3.4-16 6.6-32.8 13.4-58.9 28.9-74.6 44.6-16.5 16.4-23.2 33.8-22.4 57.8.7 20.8 6.6 35.3 19.9 48.6 9.6 9.5 21.9 16.3 34.1 18.8 1.7.4 4.4.9 6 1.3 8.9 1.8 33.8-.4 43.5-3.9.8-.3 3.8-1.4 6.5-2.3 5.1-1.8 22.6-10.2 23.5-11.4.3-.3 1.6-1.2 3-1.9 3.2-1.6 20.6-14.7 23.6-17.7 1.3-1.3 3.8-3.5 5.6-4.9l3.3-2.5-.1-75.3c-.1-41.4-.2-75.9-.3-76.6-.1-1.5-.3-1.5-8.1 1.5zm-23.6 88.5c-.1 25.5-.2 46.6-.3 47-.2 1.5-21.8 16.6-24.4 17.1-.7.1-1.5.6-1.8 1-.9 1.2-14.7 6.6-19.9 7.8-2.5.6-5.4 1.3-6.5 1.5-4.2 1-20.4.6-24.1-.6-13.9-4.5-24.3-14.8-27-26.6-1.5-7.1-1.2-19.9.8-26.4 2.8-9 9.8-18.4 18.3-24.5 1.6-1.1 3.4-2.6 4.1-3.3.7-.6 1.7-1.2 2.3-1.2.6 0 1.1-.4 1.1-.8 0-2.4 31.4-18.7 53-27.4 7.4-3.1 15.8-6.4 18.5-7.6 2.8-1.1 5.2-2.1 5.5-2.1.3-.1.5 20.7.4 46.1zM616.7 427.6c-.1.1-2.9.5-6.2.8-7.9.8-8.7.9-18 4.1-28.1 9.4-51.4 33.4-59.6 61.5-2.9 9.9-3 10.7-3.4 23.5-.4 11.5 0 15.5 2.9 28 .9 4.2 4.5 12.6 8.1 19 8 14.4 21.6 28.2 36 36.4 6.3 3.7 18.8 8.7 24 9.7 1.1.2 3.1.7 4.5 1 3.3.9 29.2 1.4 30.5.6.5-.3 2.2-.7 3.9-.9 5.1-.6 16.8-4.4 23-7.5 11.1-5.6 16-9.2 25.6-18.8 11.7-11.8 19.9-25.8 24.1-41.5 3-11 3.3-33.5.5-44.5-4-16-12.2-30.4-24-42.5-18.3-18.6-39.3-28-64.4-28.9-3.9-.1-7.3-.1-7.5 0zm15.4 32.7c13.5 1.8 30.3 12.7 40.1 26.2 7.6 10.7 11.3 23.5 10.5 37-.3 4.4-.7 8.7-1.1 9.5-.3.8-.7 2.7-1 4.1-.6 3.8-6.1 14.5-9.9 19.2-13.1 16.7-29.2 24.7-49.3 24.5-19.5-.2-33.6-7.4-48.4-24.8-9.1-10.8-14-30.9-11.1-45.5.6-2.8 1.3-6.1 1.5-7.5 1.7-8.4 11.8-22.6 22-30.8 3.3-2.8 12.6-8.4 12.6-7.6 0 .2 1.4-.3 3.1-1.2 3.1-1.6 4.5-2 10.9-3 1.9-.3 3.6-.7 3.7-.7.3-.4 12.1.1 16.4.6z"/></svg>